<?xml version="1.0" standalone="no"?>
<!DOCTYPE svg PUBLIC "-//W3C//DTD SVG 20010904//EN"
 "http://www.w3.org/TR/2001/REC-SVG-20010904/DTD/svg10.dtd">
<svg version="1.0" xmlns="http://www.w3.org/2000/svg"
 width="1080.000000pt" height="1080.000000pt" viewBox="0 0 1080.000000 1080.000000"
 preserveAspectRatio="xMidYMid meet">
<metadata>
Created by potrace 1.11, written by Peter Selinger 2001-2013
</metadata>
<g transform="translate(0.000000,1080.000000) scale(0.100000,-0.100000)"
fill="#000000" stroke="none">
<path d="M4934 9869 c-2 -3 -24 -5 -49 -5 -25 1 -45 -1 -45 -4 0 -3 -8 -6 -17
-7 -17 -1 -27 -3 -98 -18 -16 -4 -34 -8 -40 -9 -5 -1 -14 -4 -20 -7 -14 -8
-68 -23 -77 -21 -5 1 -8 -2 -8 -8 0 -5 -3 -9 -7 -8 -5 1 -24 -4 -43 -11 -19
-8 -37 -15 -40 -16 -30 -10 -90 -41 -90 -47 0 -5 -9 -8 -19 -8 -10 0 -22 -7
-25 -16 -4 -9 -9 -14 -13 -10 -3 3 -21 -6 -40 -20 -18 -14 -33 -23 -33 -20 0
4 -8 -2 -18 -11 -11 -10 -32 -27 -48 -38 -84 -59 -217 -192 -279 -279 -11 -16
-26 -34 -32 -41 -7 -8 -13 -16 -13 -19 0 -3 -16 -30 -35 -61 -20 -30 -48 -81
-63 -114 -24 -51 -30 -58 -46 -49 -9 5 -20 7 -23 4 -3 -3 -15 0 -27 6 -23 13
-111 36 -166 45 -64 10 -415 4 -415 -7 0 -1 -9 -3 -20 -5 -11 -2 -36 -7 -55
-11 -19 -4 -37 -8 -40 -8 -27 -5 -171 -63 -192 -78 -16 -11 -28 -16 -28 -12 0
4 -9 -1 -20 -11 -11 -10 -20 -15 -20 -12 0 17 -177 -115 -258 -192 -89 -85
-252 -322 -252 -366 0 -7 -4 -15 -8 -17 -17 -7 -74 -207 -89 -313 -39 -284 23
-571 176 -810 72 -114 162 -214 261 -294 25 -20 47 -39 48 -43 2 -5 9 -8 16
-8 7 0 21 -8 32 -17 38 -33 211 -123 238 -123 9 0 16 -4 16 -8 0 -5 7 -9 15
-10 8 -1 22 -3 30 -4 8 -1 15 -5 15 -10 0 -4 3 -7 8 -7 40 7 38 111 39 -1918
0 -1055 3 -1938 7 -1963 17 -116 37 -181 86 -274 21 -43 52 -95 68 -117 30
-41 130 -149 137 -149 5 0 40 -27 66 -52 9 -9 20 -14 23 -10 3 3 6 0 6 -6 0
-7 6 -12 14 -12 7 0 19 -7 26 -15 7 -8 16 -12 21 -9 5 3 9 0 9 -7 0 -7 3 -10
6 -6 3 3 27 -6 54 -19 26 -13 54 -24 62 -24 8 0 19 -5 26 -12 7 -7 12 -9 12
-6 0 3 17 2 38 -3 20 -5 53 -12 72 -16 51 -9 2726 -8 2785 1 28 5 57 9 65 10
9 1 20 5 26 8 6 4 21 9 35 12 96 18 259 115 355 211 105 105 177 226 218 367
32 109 35 151 36 426 l0 232 28 0 c95 -1 272 6 272 10 0 3 40 5 90 4 55 -1 90
3 90 9 0 6 3 8 6 4 13 -12 86 37 126 85 24 28 52 61 63 74 11 13 30 36 42 51
12 15 36 44 53 63 18 19 53 62 78 95 25 33 49 62 53 65 14 11 109 140 161 220
98 151 177 312 239 490 31 87 84 290 94 360 3 22 9 54 12 72 4 18 8 388 10
821 4 865 5 848 -55 940 -24 37 -92 112 -92 101 0 -2 -11 6 -26 18 -27 24
-144 90 -144 82 0 -2 -10 2 -22 10 -23 14 -77 31 -90 28 -5 -1 -8 3 -8 9 0 5
-4 8 -8 5 -5 -3 -28 1 -53 8 -24 8 -47 14 -51 15 -5 0 -9 2 -10 2 -2 1 -17 2
-34 4 -17 1 -44 5 -60 9 -91 23 -434 24 -550 2 -12 -3 -37 -7 -55 -10 -19 -3
-45 -8 -59 -12 -14 -3 -33 -6 -42 -6 -10 1 -20 -3 -23 -9 -4 -5 -13 -9 -21 -9
-12 0 -14 35 -14 215 0 196 2 216 18 222 64 24 292 258 292 301 0 7 4 12 8 12
4 0 24 33 44 73 193 387 118 869 -183 1166 -71 70 -220 181 -242 181 -6 0 -18
7 -27 15 -10 9 -27 18 -40 20 -12 2 -28 9 -36 16 -8 6 -14 8 -14 4 0 -4 -7 -2
-15 5 -8 7 -15 10 -15 7 0 -3 -22 3 -48 12 -26 10 -56 17 -65 15 -9 -1 -17 1
-17 5 0 7 -44 13 -107 14 -18 1 -33 5 -33 9 0 5 -9 4 -20 -2 -11 -6 -20 -7
-20 -2 0 4 -20 8 -45 8 -25 -1 -45 -3 -45 -6 0 -3 -15 -5 -32 -5 -18 1 -37 -1
-43 -4 -9 -5 -38 -9 -92 -12 -13 -1 -23 -5 -23 -10 0 -5 -3 -8 -7 -8 -5 1 -10
1 -13 -1 -3 -1 -14 -3 -26 -5 -12 -3 -42 -14 -68 -25 -63 -27 -73 -26 -92 13
-17 32 -50 81 -69 103 -5 6 -23 29 -40 50 -41 53 -163 174 -175 174 -5 0 -10
7 -10 15 0 8 -7 15 -15 15 -9 0 -18 7 -21 15 -4 8 -12 15 -20 15 -8 0 -14 5
-14 10 0 6 -6 10 -14 10 -8 0 -16 3 -18 8 -10 23 -266 160 -313 167 -5 1 -23
7 -40 14 -16 7 -38 13 -47 14 -10 1 -18 5 -18 9 0 3 -8 7 -17 7 -17 0 -58 8
-58 11 0 4 -80 17 -155 26 -64 8 -281 10 -286 3z m-722 -3146 c7 -4 15 -8 18
-9 19 -3 64 -27 76 -39 8 -8 21 -18 28 -22 30 -19 79 -96 97 -153 19 -60 19
-105 19 -1619 -1 -1546 -1 -1556 -22 -1618 -21 -64 -106 -173 -134 -173 -8 0
-14 -5 -14 -11 0 -5 -4 -8 -9 -5 -5 4 -11 2 -13 -4 -2 -6 -13 -12 -26 -15 -12
-3 -32 -7 -44 -11 -37 -8 -112 -12 -123 -6 -5 4 -19 8 -30 9 -28 4 -93 31
-111 46 -78 64 -128 140 -140 214 -4 21 -7 738 -7 1593 1 1453 2 1558 18 1605
20 56 60 119 98 152 30 26 89 58 100 55 4 -1 7 2 7 8 0 5 6 7 14 4 8 -3 16 -1
20 4 6 10 160 7 178 -5z m1018 5 c14 -2 30 -9 36 -17 6 -8 16 -11 22 -7 7 4
12 2 12 -3 0 -6 4 -11 10 -11 29 0 107 -85 138 -150 l27 -55 0 -1595 c0 -1729
4 -1615 -54 -1706 -28 -44 -110 -114 -134 -114 -9 0 -17 -5 -19 -10 -2 -6 -19
-12 -39 -14 -20 -2 -40 -5 -45 -8 -11 -5 -78 -2 -115 6 -120 26 -228 134 -254
254 -4 19 -7 737 -7 1596 1 1437 2 1565 18 1611 37 110 117 187 227 220 37 11
98 12 177 3z m1030 -1 c83 -19 179 -101 219 -187 l26 -55 0 -1600 0 -1600 -23
-51 c-37 -82 -142 -171 -223 -190 -41 -9 -139 -12 -139 -4 0 3 -11 7 -26 8
-14 1 -33 6 -43 12 -10 5 -21 6 -25 3 -3 -3 -6 -1 -6 5 0 6 -8 13 -18 16 -30
10 -102 88 -127 136 -12 25 -26 64 -30 88 -9 57 -9 3120 0 3164 25 114 114
211 232 251 33 12 140 14 183 4z m1424 -138 c18 6 121 5 268 -2 21 -1 38 -6
38 -11 0 -4 9 -6 20 -3 11 3 20 2 20 -3 0 -4 6 -7 13 -7 30 2 97 -17 148 -41
l54 -27 0 -730 c0 -849 3 -812 -96 -1106 -25 -76 -98 -238 -132 -294 -37 -61
-128 -194 -141 -208 -9 -9 -16 -19 -16 -24 0 -4 -17 -26 -38 -48 -20 -22 -55
-63 -77 -90 -22 -28 -44 -55 -50 -61 -18 -21 -74 -89 -87 -107 -12 -15 -31
-18 -133 -20 -66 -2 -126 -7 -134 -11 -10 -7 -12 -5 -6 5 7 12 6 12 -7 1 -10
-8 -18 -9 -22 -3 -4 6 -13 8 -21 4 -13 -4 -15 162 -15 1340 l0 1346 30 21 c17
12 30 19 30 15 0 -3 10 0 23 7 12 7 25 11 29 10 4 -1 20 3 35 9 15 7 42 13 58
14 17 2 30 4 30 5 0 3 51 11 87 13 20 2 40 6 44 10 4 4 12 3 17 -2 5 -5 19 -6
31 -2z"/>
<path d="M7968 1724 c-3 -3 -35 -7 -70 -9 -34 -2 -83 -9 -108 -15 -25 -7 -49
-13 -55 -14 -5 -1 -32 -10 -60 -19 -27 -9 -53 -16 -56 -14 -4 1 -17 -7 -29
-18 -12 -11 -25 -19 -28 -17 -4 1 -6 -6 -6 -16 0 -22 38 -73 56 -76 7 -1 18
-5 25 -9 6 -4 18 -1 26 7 8 8 17 12 21 9 3 -4 6 -1 6 5 0 7 9 12 19 12 11 0
22 4 25 9 3 5 19 14 35 19 34 12 34 10 -1 -67 -11 -25 -22 -54 -24 -65 -2 -11
-7 -22 -11 -25 -5 -3 -10 -15 -11 -26 -2 -11 -9 -23 -15 -27 -7 -4 -9 -8 -4
-8 4 0 1 -13 -8 -30 -8 -16 -15 -32 -15 -35 -1 -6 -10 -35 -20 -60 -18 -44
-35 -90 -35 -95 0 -4 -33 -97 -53 -150 -3 -8 -6 -18 -7 -22 -2 -5 -4 -10 -5
-13 -1 -3 -4 -9 -5 -15 -1 -5 -4 -12 -5 -15 -1 -3 -3 -8 -4 -12 -2 -11 -36
-114 -43 -133 -8 -21 -14 -43 -15 -57 -1 -7 -6 -13 -11 -13 -5 0 -7 -7 -3 -15
3 -8 0 -15 -6 -15 -6 0 -9 -3 -5 -6 3 -3 1 -18 -5 -33 -5 -14 -11 -33 -13 -41
-3 -8 -11 -33 -19 -55 -14 -39 -19 -74 -17 -105 1 -16 51 -79 51 -64 0 5 4 3
8 -4 5 -7 17 -14 28 -16 10 -2 31 -7 45 -11 16 -4 29 -1 35 7 10 12 31 76 39
117 2 9 8 27 13 41 5 14 10 28 11 33 0 4 1 8 2 10 0 1 2 13 5 27 2 14 7 32 11
40 3 8 7 20 8 25 2 6 15 53 29 105 15 52 29 104 32 115 3 11 6 25 8 30 2 6 6
22 10 37 9 31 16 35 79 34 26 -1 47 2 47 6 0 4 12 5 28 4 15 -2 33 1 40 6 6 6
12 8 12 5 0 -7 121 26 165 44 17 7 33 12 38 11 4 -1 7 2 7 8 0 6 3 9 8 8 9 -3
67 28 93 50 48 40 69 62 69 71 0 6 8 15 18 20 9 6 13 11 8 11 -4 0 -2 10 7 23
21 33 36 115 31 171 -5 51 -46 151 -57 139 -4 -3 -7 -1 -7 6 0 15 -45 61 -60
61 -5 0 -10 4 -10 9 0 10 -56 41 -72 41 -5 0 -16 7 -24 15 -13 13 -42 20 -66
16 -5 0 -8 3 -8 7 0 8 -17 11 -75 15 -16 1 -33 5 -36 10 -3 4 -8 5 -11 1z m89
-118 c58 -13 113 -57 141 -114 24 -49 23 -156 -2 -195 -10 -15 -15 -27 -11
-27 4 0 -3 -10 -16 -22 -14 -13 -27 -27 -29 -33 -2 -5 -18 -21 -35 -35 -16
-14 -33 -29 -37 -35 -4 -5 -8 -6 -8 -1 0 5 -9 1 -21 -10 -12 -10 -23 -18 -25
-16 -2 1 -20 -5 -40 -13 -20 -8 -42 -15 -49 -15 -6 0 -15 -3 -19 -7 -6 -7 -22
-10 -84 -17 -31 -4 -33 -2 -30 23 1 14 6 32 11 39 5 6 6 12 2 12 -4 0 -2 7 5
15 7 8 10 15 7 15 -3 0 1 17 10 37 8 21 17 49 20 62 2 14 7 29 11 35 3 6 7 16
8 21 5 27 10 40 16 45 4 3 9 15 11 25 2 11 9 33 15 48 7 15 15 39 18 52 3 14
10 25 15 25 5 0 8 3 7 8 -2 4 5 26 15 48 19 42 29 45 94 30z"/>
<path d="M1825 1710 c-22 -8 -165 -146 -165 -158 0 -4 -9 -14 -20 -22 -11 -8
-20 -18 -20 -22 0 -4 -16 -24 -35 -45 -19 -21 -35 -43 -35 -50 0 -7 -6 -16
-14 -20 -12 -7 -60 -72 -91 -121 -5 -9 -15 -21 -21 -27 -5 -5 -28 -37 -50 -70
-57 -88 -55 -86 -128 -82 -77 5 -147 -16 -187 -53 -30 -29 -62 -87 -51 -93 4
-2 28 -3 55 -3 26 1 47 -2 47 -6 0 -4 11 -4 23 1 13 5 30 5 37 1 8 -5 18 -6
22 -4 21 13 25 -10 5 -32 -12 -14 -22 -29 -22 -32 0 -4 -5 -14 -10 -22 -21
-32 -35 -56 -49 -85 -8 -16 -18 -34 -23 -38 -4 -5 -8 -12 -8 -15 -1 -4 -13
-30 -28 -58 -14 -28 -23 -54 -20 -58 4 -3 0 -6 -7 -6 -7 0 -11 -3 -8 -6 4 -3
1 -20 -7 -37 -7 -18 -11 -42 -10 -55 1 -12 -2 -22 -6 -22 -5 0 -4 -11 1 -25 5
-14 7 -25 4 -25 -3 0 10 -16 29 -35 19 -19 40 -35 46 -35 6 0 11 -4 11 -10 0
-27 19 -4 43 50 14 33 25 62 25 63 -1 1 10 22 23 47 13 25 24 47 24 50 1 3 9
22 18 43 9 20 15 39 14 41 -1 2 6 13 16 23 9 11 14 23 10 26 -3 4 -2 7 4 7 6
0 14 12 18 27 3 15 15 39 26 55 11 15 17 28 12 28 -4 0 -3 4 2 8 6 4 20 28 33
55 23 46 53 73 66 60 8 -8 29 -12 81 -16 22 -2 45 -6 51 -9 11 -7 12 -55 3
-73 -3 -6 -5 -19 -5 -30 1 -11 -3 -23 -9 -27 -6 -5 -5 -8 3 -8 7 0 10 -5 7
-11 -4 -6 -7 -38 -6 -72 2 -72 4 -87 14 -104 5 -7 6 -13 3 -13 -10 0 31 -71
51 -89 45 -40 114 -46 178 -15 39 19 105 76 105 92 0 6 7 9 15 6 8 -4 15 -11
15 -18 0 -19 64 -85 85 -89 11 -1 25 -5 30 -8 10 -5 55 -4 85 3 32 8 87 40
119 69 26 23 36 27 47 18 8 -6 14 -17 14 -23 0 -6 10 -18 21 -26 12 -8 28 -21
36 -29 31 -30 148 -45 223 -29 43 10 151 71 195 111 28 25 51 44 53 42 2 -2 4
-17 4 -34 1 -18 5 -34 10 -37 4 -3 6 -10 3 -15 -4 -5 -1 -9 4 -9 6 0 11 -6 11
-13 0 -33 94 -44 124 -14 20 21 67 137 65 161 0 5 4 12 11 16 6 4 13 20 16 36
3 16 10 31 15 35 6 3 10 9 9 13 -1 7 31 75 53 111 7 10 24 33 39 50 16 16 28
33 28 38 0 4 9 7 20 7 11 0 20 5 20 10 0 11 47 12 70 2 9 -4 15 -13 14 -19 -1
-7 -2 -20 -3 -28 -3 -32 -93 -96 -123 -87 -5 1 -8 -2 -8 -7 0 -6 -9 -8 -20 -6
-43 8 -51 -3 -48 -71 1 -35 5 -64 8 -64 3 0 7 -8 8 -18 4 -35 8 -48 29 -89 12
-22 19 -44 15 -49 -4 -4 -2 -4 4 -1 6 3 17 -4 24 -17 14 -27 53 -44 115 -50
17 -2 36 2 44 8 8 6 16 10 18 9 8 -7 21 -1 41 17 12 12 22 18 22 14 0 -3 13 8
30 26 26 28 31 30 45 17 8 -9 15 -19 15 -22 0 -10 60 -65 71 -65 5 0 12 0 15
1 4 0 10 -4 14 -11 4 -6 31 -12 61 -13 30 -1 57 -6 61 -12 5 -7 8 -6 8 0 0 6
8 12 18 13 37 4 51 8 68 22 9 8 20 14 23 13 3 0 13 3 21 8 8 4 12 9 8 9 -3 0
6 12 21 28 15 15 30 33 32 40 2 7 18 15 34 18 16 3 33 10 36 16 7 10 23 -24
24 -49 0 -20 44 -72 73 -87 29 -15 91 -24 107 -14 6 3 22 8 37 12 15 3 53 31
84 61 52 52 73 67 59 46 -7 -12 74 -93 85 -86 5 3 11 1 14 -3 7 -11 83 -7 116
6 14 5 27 9 30 8 3 0 16 9 29 21 24 23 61 36 61 23 0 -5 16 -14 35 -21 19 -7
35 -17 35 -22 0 -4 6 -5 13 0 6 4 20 6 29 5 9 -2 19 6 23 18 3 11 11 20 16 20
5 0 9 6 9 13 0 6 27 52 60 101 33 49 60 92 60 95 0 4 9 13 20 21 11 8 20 18
20 22 0 4 14 21 30 38 17 17 30 27 30 23 0 -4 7 2 15 13 24 35 114 42 101 8
-3 -8 -1 -14 5 -14 6 0 6 -6 0 -19 -6 -10 -8 -21 -5 -24 3 -3 1 -14 -4 -24 -6
-10 -13 -34 -16 -54 -3 -20 -9 -47 -14 -60 -12 -32 -5 -101 10 -111 7 -4 9 -8
3 -8 -5 0 1 -10 15 -23 27 -25 85 -49 94 -40 3 4 6 1 6 -6 0 -7 5 -9 13 -4 6
4 21 8 32 9 28 1 109 40 125 59 15 18 40 20 40 4 0 -20 57 -67 92 -76 46 -12
79 -8 127 17 39 19 141 110 141 125 0 3 6 13 14 21 17 16 27 6 25 -27 -1 -13
3 -35 8 -49 13 -31 63 -81 74 -75 4 3 10 1 13 -4 15 -24 176 13 176 41 0 5 5
6 10 3 6 -3 13 1 16 9 3 9 9 14 13 12 4 -3 27 18 52 46 24 29 52 60 62 70 9
10 14 18 10 18 -3 0 1 8 9 18 8 9 20 32 28 49 7 18 17 33 22 33 5 0 7 4 3 9
-3 5 2 17 11 25 8 9 12 16 9 16 -4 0 0 11 9 25 9 14 13 25 10 25 -4 0 1 9 11
20 10 11 15 20 11 20 -3 0 1 14 9 31 16 30 17 30 34 12 17 -17 25 -103 10
-103 -6 0 -15 -27 -25 -75 -2 -11 -8 -21 -14 -23 -5 -2 -10 -12 -10 -21 0 -10
-3 -21 -7 -25 -4 -4 -8 -17 -10 -29 -1 -12 -5 -39 -9 -61 -4 -24 -1 -48 7 -65
17 -32 65 -81 81 -82 105 -8 180 10 236 56 55 46 101 93 128 130 16 22 33 43
39 47 7 5 7 8 0 8 -7 0 -7 3 0 8 13 9 35 48 35 61 0 6 -14 23 -32 40 -26 24
-34 27 -45 16 -7 -8 -13 -18 -13 -24 0 -5 -7 -16 -15 -24 -8 -8 -16 -21 -17
-28 -4 -18 -122 -139 -136 -139 -7 0 -12 -5 -12 -11 0 -5 -4 -8 -9 -4 -5 3
-12 1 -16 -5 -10 -16 -42 -12 -49 6 -3 8 -1 24 5 35 6 11 12 30 15 42 2 12 8
23 14 25 6 2 8 8 5 13 -3 4 1 20 10 33 9 14 14 30 10 36 -3 5 -2 10 4 10 5 0
8 9 6 20 -2 11 -1 20 3 20 4 0 7 18 5 40 -2 47 -42 140 -60 140 -7 0 -16 6
-20 13 -4 7 -25 23 -45 35 -31 20 -36 27 -31 50 14 68 4 100 -38 115 -44 15
-123 -90 -112 -148 7 -38 3 -95 -8 -95 -3 0 -10 -10 -14 -22 -4 -13 -8 -25 -9
-28 -2 -3 -6 -17 -10 -33 -5 -15 -12 -27 -17 -27 -5 0 -8 -3 -7 -7 10 -33
-157 -265 -175 -246 -4 3 -7 1 -7 -5 0 -7 -6 -12 -14 -12 -8 0 -16 -6 -19 -12
-2 -7 -8 -9 -13 -5 -10 10 -14 137 -4 137 3 0 6 10 7 23 1 12 4 33 8 47 3 14
8 36 11 49 3 13 9 32 15 43 5 10 7 18 3 18 -3 0 -1 6 5 13 6 8 8 17 4 20 -3 4
-1 7 5 7 7 0 11 3 11 8 -1 4 0 9 1 12 1 3 3 12 5 20 1 8 13 38 25 65 12 28 26
59 31 70 4 11 24 55 44 98 19 43 35 83 35 88 0 5 5 9 12 9 6 0 8 3 5 6 -4 4 2
19 12 33 10 14 16 32 14 39 -3 6 -1 12 5 12 5 0 15 18 22 40 7 22 18 40 23 40
6 0 7 3 4 6 -4 4 0 19 8 33 7 14 23 51 34 82 18 51 18 59 5 85 -8 16 -21 32
-27 36 -22 14 -72 -4 -100 -36 -33 -37 -89 -121 -89 -133 0 -4 -8 -20 -18 -34
-10 -14 -22 -37 -25 -52 -4 -15 -12 -27 -18 -27 -6 0 -8 -3 -4 -6 3 -4 -1 -21
-10 -38 -9 -17 -18 -40 -20 -51 -2 -10 -7 -22 -12 -25 -4 -3 -14 -23 -21 -45
-7 -22 -16 -44 -20 -50 -4 -5 -13 -31 -21 -58 -13 -47 -25 -57 -46 -36 -12 12
-111 20 -128 10 -5 -3 -19 -7 -30 -8 -10 -2 -23 -9 -27 -16 -4 -6 -8 -8 -8 -4
0 23 -154 -109 -203 -174 -9 -13 -28 -38 -42 -55 -14 -18 -25 -39 -25 -47 0
-8 -7 -20 -15 -27 -8 -7 -15 -18 -15 -25 0 -7 -7 -18 -15 -25 -8 -7 -13 -16
-10 -20 3 -4 -2 -13 -10 -20 -8 -7 -15 -16 -15 -21 0 -5 -8 -18 -17 -30 -67
-80 -106 -108 -119 -87 -11 17 -14 38 -6 38 4 0 8 11 8 24 1 13 9 39 18 58 18
37 27 69 30 108 1 14 5 31 9 37 4 6 3 14 -3 18 -6 4 -8 11 -4 16 16 27 -59
144 -96 147 -8 1 -33 3 -55 5 -23 3 -48 -1 -59 -9 -10 -7 -24 -10 -31 -8 -7 3
-15 -2 -18 -10 -4 -9 -12 -16 -20 -16 -7 0 -39 -26 -71 -57 l-58 -57 5 33 c4
22 -1 43 -14 64 -10 18 -19 28 -19 23 0 -5 -6 -4 -13 2 -7 6 -22 9 -32 7 -11
-2 -27 -4 -35 -4 -8 -1 -28 -11 -43 -24 -23 -18 -30 -33 -33 -71 -3 -27 -9
-57 -14 -66 -5 -10 -6 -20 -3 -24 3 -3 1 -6 -5 -6 -6 0 -9 -6 -6 -13 2 -7 -3
-23 -13 -35 -10 -12 -36 -46 -58 -76 -47 -63 -123 -120 -149 -110 -13 5 -16
14 -11 41 3 20 8 40 12 47 4 6 8 17 10 25 1 8 5 17 10 20 9 6 48 85 56 111 2
8 0 23 -5 33 -7 13 -4 22 10 35 21 19 46 72 33 72 -4 0 -7 10 -6 23 4 38 -30
84 -88 116 -29 16 -50 19 -104 17 -37 -2 -81 -11 -98 -20 -16 -9 -36 -16 -42
-16 -7 0 -13 -4 -13 -9 0 -5 -9 -13 -21 -16 -25 -8 -149 -126 -149 -143 0 -7
-3 -12 -7 -12 -5 0 -19 -17 -33 -38 -14 -20 -29 -40 -35 -44 -5 -4 -6 -8 -2
-8 5 0 -1 -12 -12 -26 -12 -15 -21 -33 -21 -40 0 -7 -11 -21 -25 -32 -14 -11
-25 -24 -25 -30 0 -5 -7 -13 -16 -16 -22 -8 -26 -8 -19 4 3 6 2 10 -2 10 -5 0
-8 20 -7 45 1 25 -1 45 -5 45 -3 0 -7 12 -8 28 -3 49 -15 102 -22 102 -4 0 -8
6 -8 13 0 6 -8 39 -17 71 -10 33 -15 67 -13 78 3 10 2 18 -2 18 -4 0 -8 7 -8
15 0 8 4 15 7 15 4 0 6 14 5 32 -6 63 -75 79 -119 27 -14 -17 -27 -35 -27 -40
-2 -13 -6 -29 -9 -31 -1 -2 -3 -17 -3 -34 -1 -17 -8 -38 -14 -46 -7 -8 -10
-18 -6 -21 3 -4 1 -7 -5 -7 -7 0 -12 -5 -12 -11 0 -6 -6 -17 -12 -24 -28 -31
-38 -44 -38 -50 0 -4 -7 -13 -15 -21 -8 -8 -21 -24 -29 -35 -12 -17 -18 -19
-35 -10 -17 9 -21 9 -21 -2 0 -8 -13 -30 -30 -48 -16 -19 -32 -47 -36 -64 -8
-37 -23 -64 -51 -91 -12 -12 -20 -24 -17 -27 3 -3 -16 -15 -41 -27 -45 -22
-46 -22 -67 -4 -25 23 -60 89 -51 98 4 3 1 6 -7 6 -10 0 -10 3 0 15 7 8 17 15
22 15 19 0 98 41 98 51 0 6 3 8 8 6 4 -3 21 11 39 29 18 19 30 34 26 34 -3 0
0 6 6 13 6 8 8 17 4 20 -3 4 -1 7 5 7 13 0 8 94 -7 130 -13 31 -35 60 -46 60
-5 0 -17 8 -27 17 -11 9 -27 19 -36 21 -32 7 -102 3 -122 -8 -11 -6 -20 -7
-20 -3 0 4 -7 -2 -15 -13 -8 -10 -15 -15 -15 -11 0 13 -91 -83 -120 -126 -14
-20 -32 -37 -40 -37 -9 0 -11 3 -5 8 6 4 12 16 13 27 2 11 9 23 15 27 7 4 9 8
5 8 -14 0 23 83 45 101 12 10 27 23 34 29 7 5 15 10 18 10 7 0 72 66 112 115
26 30 93 136 93 147 0 5 8 23 18 40 73 129 36 324 -56 303 -28 -6 -122 -93
-122 -113 0 -5 -7 -12 -15 -16 -8 -3 -15 -12 -15 -21 0 -8 -4 -15 -8 -15 -5 0
-16 -16 -25 -35 -9 -19 -22 -35 -27 -35 -6 0 -9 -4 -6 -8 3 -5 -6 -25 -20 -45
-14 -20 -21 -37 -17 -37 4 0 3 -4 -3 -8 -17 -10 -132 -255 -122 -258 2 0 -3
-8 -11 -17 -7 -10 -10 -17 -5 -17 5 0 4 -4 -2 -8 -10 -7 -57 -137 -57 -159 0
-7 -4 -13 -9 -13 -4 0 -7 -3 -7 -7 4 -20 -15 -93 -24 -93 -6 0 -8 -3 -4 -6 8
-9 -21 -64 -33 -64 -6 0 -10 -6 -10 -12 0 -29 -149 -166 -163 -151 -4 3 -7 1
-7 -6 0 -7 -4 -10 -9 -7 -5 4 -11 1 -13 -5 -2 -6 -31 -12 -65 -14 -52 -3 -64
-1 -81 18 -25 26 -39 103 -20 105 7 0 24 3 38 7 14 4 32 8 40 9 33 5 60 18 60
28 0 6 3 8 7 5 3 -4 17 0 30 8 13 9 23 13 23 10 0 -3 9 3 19 13 11 9 37 31 59
47 40 30 91 92 93 110 0 6 6 16 11 23 14 16 19 142 7 142 -5 0 -9 6 -9 14 0
30 -58 58 -125 60 -36 1 -65 -1 -65 -4 0 -4 -17 -12 -37 -18 -39 -12 -141 -80
-142 -95 -1 -4 -11 -18 -24 -30 -51 -49 -154 -207 -148 -227 2 -10 -22 -75
-38 -100 -22 -35 -69 -82 -97 -96 -20 -11 -27 -10 -44 4 -24 19 -27 57 -15
160 6 55 11 64 53 106 78 75 102 102 102 114 0 5 4 12 9 14 28 11 238 378 223
392 -3 3 0 6 7 6 7 0 10 4 7 8 -3 5 1 21 9 35 8 15 14 29 13 30 -1 1 4 25 11
54 22 92 -5 204 -53 222 -36 14 -68 2 -108 -42 -45 -49 -154 -208 -150 -219 1
-5 -2 -8 -8 -8 -5 0 -10 -6 -10 -14 0 -8 -3 -16 -7 -18 -5 -1 -19 -25 -33 -53
-13 -27 -28 -53 -33 -56 -5 -3 -9 -10 -9 -15 -1 -15 -22 -59 -31 -65 -5 -3 -9
-10 -9 -15 0 -5 -4 -19 -9 -32 -5 -13 -9 -28 -9 -33 0 -5 -4 -9 -10 -9 -5 0
-10 -7 -10 -16 0 -9 -6 -30 -14 -47 -13 -30 -21 -52 -25 -69 -1 -4 -8 -20 -16
-35 -8 -14 -12 -30 -9 -35 3 -4 1 -8 -4 -8 -5 0 -9 -6 -9 -12 -1 -52 -75 -228
-95 -228 -4 0 -7 -4 -5 -8 1 -5 -15 -27 -35 -50 -21 -23 -38 -40 -38 -37 0 3
-8 1 -19 -4 -15 -8 -20 -6 -30 15 -6 15 -7 23 -1 19 6 -4 7 2 2 17 -8 23 -7
81 3 168 7 64 13 105 15 105 1 0 3 11 6 25 4 22 25 123 30 143 1 4 2 8 4 10 1
1 3 11 5 22 6 36 10 50 18 63 5 6 6 12 3 12 -3 0 1 18 9 40 8 22 12 40 8 40
-3 0 -1 6 5 13 5 6 13 28 17 47 4 19 12 41 18 48 5 7 7 15 3 19 -3 3 1 17 9
30 9 13 13 23 9 23 -4 0 -1 6 5 14 7 8 13 23 16 34 4 24 34 87 58 123 19 29
20 27 -28 67 -19 16 -80 42 -97 41 -7 0 -22 -4 -33 -9z m-110 -270 c-3 -5 -8
-19 -11 -30 -2 -11 -6 -29 -9 -41 -2 -12 -9 -27 -15 -34 -6 -7 -10 -17 -9 -21
1 -5 -1 -17 -4 -26 -4 -10 -10 -26 -14 -35 -3 -10 -7 -27 -8 -38 -1 -11 -8
-31 -15 -45 -7 -14 -12 -26 -11 -28 1 -1 -3 -26 -10 -56 -10 -46 -15 -53 -35
-53 -13 0 -24 3 -24 8 0 5 -3 8 -7 7 -5 -1 -23 1 -40 5 l-33 6 17 36 c9 19 20
35 25 35 4 0 8 6 8 13 0 7 16 36 35 65 20 28 32 52 28 52 -5 0 -3 4 3 8 6 4
23 27 39 51 15 25 32 49 37 55 5 6 18 26 28 44 11 17 22 32 25 32 4 0 3 -4 0
-10z m679 -17 c-4 -16 -11 -31 -16 -34 -6 -3 -9 -9 -7 -13 3 -12 -44 -116 -53
-116 -5 0 -6 -4 -3 -10 3 -5 1 -10 -6 -10 -7 0 -9 -3 -6 -7 4 -3 0 -14 -9 -24
-8 -9 -16 -26 -17 -38 -1 -11 -4 -21 -8 -21 -4 0 -14 -12 -22 -27 -30 -59 -53
-93 -64 -97 -9 -4 -10 0 -4 12 32 65 73 165 71 171 -1 2 2 7 7 10 4 3 21 32
37 64 16 31 33 57 38 57 5 0 7 4 3 9 -3 5 1 16 9 24 8 8 12 17 9 21 -4 3 -1 6
5 6 7 0 12 6 12 13 0 12 19 37 27 37 2 0 0 -12 -3 -27z m300 -459 c-16 -40
-109 -134 -131 -134 -7 0 -13 -4 -13 -8 0 -5 -16 -16 -35 -25 -19 -9 -35 -15
-35 -12 0 14 46 89 70 115 15 17 26 30 24 30 -1 0 8 11 22 25 14 14 29 25 34
25 6 0 10 4 10 9 0 12 53 30 63 22 4 -4 0 -25 -9 -47z m3368 36 c6 -10 4 -28
-6 -52 -9 -21 -16 -41 -15 -44 0 -4 -3 -10 -8 -13 -5 -3 -14 -17 -21 -31 -27
-55 -67 -121 -87 -144 -6 -6 -19 -23 -30 -37 -34 -43 -90 -88 -118 -93 -20 -3
-28 0 -34 17 -4 12 -6 27 -4 32 2 6 4 19 5 30 4 28 27 98 37 111 5 6 7 13 4
16 -3 3 1 11 10 18 8 7 15 19 15 26 0 8 4 14 9 14 5 0 12 8 15 18 3 9 25 38
49 64 62 70 156 106 179 68z m-1471 -29 c1 -9 1 -19 0 -23 0 -5 4 -8 10 -8 8
0 8 -5 -1 -15 -7 -8 -9 -15 -6 -15 4 0 -2 -10 -14 -22 -11 -12 -20 -25 -20
-28 0 -4 -8 -16 -17 -28 -49 -57 -57 -67 -53 -68 6 0 -55 -75 -97 -119 -17
-19 -29 -36 -26 -38 2 -3 -5 -8 -16 -12 -12 -3 -21 -10 -21 -14 0 -3 -14 -15
-30 -24 -30 -18 -30 -18 -39 5 -9 26 6 102 34 163 10 22 18 43 17 46 -1 4 10
19 23 33 13 14 21 26 18 26 -7 0 65 89 92 113 54 49 143 66 146 28z m-773
-108 c-1 -5 2 -19 5 -33 4 -14 8 -36 10 -50 1 -14 5 -29 8 -35 8 -15 5 -95 -3
-97 -15 -6 -86 46 -103 74 -18 30 -17 33 25 79 8 9 24 28 34 42 19 27 27 34
24 20z m-80 -273 c33 -22 66 -40 73 -40 11 0 11 -2 -1 -10 -27 -18 -78 -11
-104 13 -14 13 -23 27 -19 30 3 4 0 7 -7 7 -7 0 -10 3 -7 7 4 3 2 12 -4 20
-21 25 8 14 69 -27z"/>
<path d="M9391 1699 c-27 -11 -92 -65 -85 -71 2 -3 -7 -15 -21 -28 -14 -13
-25 -28 -25 -32 0 -5 -6 -16 -12 -23 -23 -26 -33 -40 -48 -70 -8 -16 -21 -36
-27 -43 -7 -7 -13 -20 -13 -28 0 -8 -4 -14 -10 -14 -5 0 -10 -7 -10 -15 0 -8
-4 -15 -8 -15 -4 0 -8 -10 -9 -22 -1 -11 -6 -24 -11 -27 -11 -7 -52 -95 -52
-110 0 -6 -4 -11 -10 -11 -6 0 -9 -3 -8 -7 2 -5 -7 -32 -20 -60 -12 -29 -22
-55 -23 -58 0 -3 -8 -25 -19 -50 -11 -25 -17 -45 -13 -45 3 0 0 -6 -6 -13 -6
-8 -8 -17 -4 -20 3 -4 1 -7 -6 -7 -7 0 -11 -6 -8 -14 3 -8 3 -17 -1 -20 -3 -4
-7 -12 -9 -19 -22 -100 -66 -207 -85 -207 -4 0 -8 -7 -8 -16 0 -8 -4 -12 -10
-9 -5 3 -10 -1 -10 -9 0 -9 -3 -16 -8 -16 -4 0 -21 -12 -38 -27 -28 -26 -46
-34 -83 -37 -11 -1 -15 10 -15 37 -1 20 3 37 7 37 5 0 6 4 3 8 -3 5 1 21 9 36
8 14 10 24 4 20 -7 -4 -6 1 0 12 6 11 29 63 50 116 35 88 38 98 24 117 -19 28
-65 51 -100 51 -24 0 -31 -8 -50 -50 -13 -27 -23 -53 -23 -59 0 -5 -3 -11 -7
-13 -5 -1 -21 -30 -38 -63 -16 -33 -44 -82 -62 -109 -18 -26 -33 -52 -33 -56
0 -4 -7 -11 -16 -14 -9 -4 -14 -9 -11 -13 6 -6 -35 -43 -48 -43 -22 0 -32 30
-28 90 5 90 5 90 15 90 5 0 7 4 3 9 -3 5 -1 12 5 16 6 4 8 10 6 14 -3 4 15 46
39 95 l43 87 -29 30 c-15 16 -34 29 -41 30 -7 0 -21 2 -31 4 -16 3 -41 -17
-72 -57 -15 -19 -50 -101 -48 -110 2 -5 -2 -8 -7 -8 -5 0 -9 -3 -8 -7 1 -5 -5
-28 -12 -53 -8 -25 -14 -47 -14 -50 -1 -3 -4 -9 -7 -15 -4 -5 -5 -25 -4 -43 1
-18 -2 -35 -5 -37 -4 -3 -4 -23 0 -45 4 -22 6 -40 4 -40 -2 0 7 -19 20 -43 50
-90 132 -114 217 -63 24 14 40 26 34 26 -5 0 1 7 13 16 12 8 22 22 22 30 0 13
2 13 16 0 9 -9 17 -23 18 -31 3 -20 37 -51 67 -60 36 -12 79 -13 79 -1 0 6 4
6 11 -1 9 -9 21 -7 48 5 20 9 38 20 39 25 2 4 9 7 16 7 7 0 29 16 51 35 21 20
39 34 40 33 1 -2 7 -22 15 -45 17 -56 66 -108 119 -125 43 -15 121 -15 144 -1
7 4 17 8 23 9 38 6 181 134 166 148 -3 3 12 6 34 7 56 1 80 6 122 28 45 23 92
69 112 108 8 15 19 31 23 34 5 3 9 12 10 20 2 8 5 19 9 24 7 12 -43 75 -60 75
-5 0 -16 -13 -23 -28 -39 -77 -76 -123 -117 -143 -24 -12 -46 -19 -49 -16 -3
4 2 25 12 49 18 43 30 182 17 202 -3 6 -8 20 -9 31 -2 11 -8 22 -13 23 -6 2
-8 7 -5 12 3 4 -18 20 -47 34 -39 19 -55 23 -65 15 -10 -9 -13 -8 -13 2 0 12
-2 12 -9 1 -4 -8 -11 -12 -15 -10 -13 6 -67 -38 -89 -72 -21 -34 -27 -51 -29
-80 0 -8 -5 -21 -11 -27 -6 -8 -6 -13 0 -13 5 0 10 -13 10 -28 0 -54 28 -126
64 -164 20 -21 31 -38 26 -38 -6 0 -8 -3 -4 -6 7 -7 -6 -21 -49 -51 -27 -19
-48 -22 -96 -14 -21 4 -31 146 -15 221 4 14 8 34 10 45 3 11 11 40 18 65 7 25
13 48 13 53 2 13 57 77 68 77 34 0 261 314 241 334 -4 3 -2 6 3 6 8 0 36 59
39 80 0 3 3 10 6 15 4 6 10 24 14 40 5 17 9 33 10 38 2 4 4 8 5 10 1 1 3 29 5
62 3 67 -6 99 -37 133 -23 24 -39 26 -77 11z m-43 -297 c-9 -23 -83 -168 -88
-172 -3 -3 -14 -22 -24 -43 -19 -36 -36 -45 -21 -10 5 10 7 21 7 26 -1 4 3 7
8 7 6 0 9 3 8 8 -1 4 9 27 22 52 13 25 23 48 22 53 -1 4 2 7 6 7 5 0 17 18 28
40 10 22 23 40 27 40 5 0 7 -4 5 -8z m-34 -548 c3 -8 2 -12 -4 -9 -6 3 -10 2
-10 -4 0 -5 4 -12 8 -15 7 -4 8 -50 2 -66 -2 -5 -5 -22 -9 -55 -2 -17 -5 -15
-17 10 -12 27 -17 128 -7 148 7 13 31 8 37 -9z"/>
</g>
</svg>
